<svg  viewBox="0 0 134 142" fill="none" xmlns="http://www.w3.org/2000/svg">
<path d="M55.1894 74.8434C52.0686 73.6936 49.1941 73.1188 46.5661 73.1188C42.624 73.1188 39.0104 74.1043 35.7253 76.0753C32.4402 77.8821 29.8121 80.5102 27.8411 83.9595C26.0343 87.2446 25.1309 90.8582 25.1309 94.8003C25.1309 98.5782 26.0343 102.11 27.8411 105.395C29.8121 108.68 32.4402 111.308 35.7253 113.279C39.0104 115.086 42.624 115.989 46.5661 115.989C50.5082 115.989 54.0396 115.004 57.1605 113.033C60.4456 111.061 63.0736 108.516 65.0447 105.395C67.18 102.11 68.2476 98.5782 68.2476 94.8003H93.3785C93.3785 103.013 91.2432 110.651 86.9726 117.714C82.8663 124.777 77.1995 130.443 69.9723 134.714C62.9094 138.985 55.1073 141.12 46.5661 141.12C38.0248 141.12 30.2228 139.067 23.1598 134.96C16.0969 130.854 10.4301 125.269 6.15953 118.207C2.05318 110.979 0 103.095 0 94.5539C0 86.177 2.05318 78.457 6.15953 71.3941C10.4301 64.1669 16.0969 58.5001 23.1598 54.3938C30.2228 50.1232 38.0248 47.9879 46.5661 47.9879C52.315 47.9879 40.6529 49.8481 46.5661 52.1477L55.1894 74.8434ZM32.7687 10.0772C43.7738 10.0772 53.8754 6.59578 63.0736 12.0162C72.4361 17.2723 79.8276 24.4995 85.2479 33.6977C90.6683 42.896 93.3785 53.0797 93.3785 64.249V108.598C93.3785 110.733 94.0355 112.54 95.3496 114.018C96.8279 115.332 98.5525 115.989 100.524 115.989C102.987 115.989 104.876 115.332 106.19 114.018C107.669 112.704 108.408 110.897 108.408 108.598V64.7418H133.539V108.598C133.539 114.511 132.06 120.013 129.104 125.105C126.147 130.033 122.123 133.975 117.031 136.932C112.104 139.724 106.601 141.12 100.524 141.12C94.6104 141.12 89.19 139.724 84.2624 136.932C79.3348 133.975 75.3927 130.033 72.4361 125.105C69.6438 120.013 68.2476 114.511 68.2476 108.598V64.249C68.2476 57.6789 66.6872 51.7657 63.5664 46.5096C60.4456 41.0892 56.1749 36.8186 50.7546 33.6977C45.4984 30.5769 39.5031 29.0165 32.7687 29.0165V10.0772Z" fill="#FF7A00"/>
<circle cx="38.7519" cy="65.1348" r="21.7793" fill="#6EE7B7"/>
<circle cx="38.7519" cy="65.1348" r="7.25976" fill="#1F2937"/>
<circle cx="87.014" cy="50.6156" r="26.4828" fill="#6EE7B7"/>
<circle cx="87.0157" cy="50.6173" r="9.30476" fill="#1F2937"/>
<path d="M67.0811 0C103.791 0 133.55 3.6169 133.55 8.07812C133.549 12.5393 103.79 16.1553 67.0811 16.1553C30.3723 16.1552 0.614131 12.5392 0.613281 8.07812C0.613281 3.61692 30.3717 2.77639e-05 67.0811 0ZM58.7725 1.61523C37.4869 1.61525 20.2316 3.11379 20.2305 4.96191C20.2305 6.81013 37.4862 8.30858 58.7725 8.30859C80.0589 8.30859 97.3154 6.81014 97.3154 4.96191C97.3143 3.11378 80.0582 1.61523 58.7725 1.61523Z" fill="#38BDF8"/>
</svg>
