<svg viewBox="0 0 141 154" fill="none" xmlns="http://www.w3.org/2000/svg">
<circle cx="26.9016" cy="90.4992" r="21.3" fill="#FFD93D"/>
<circle cx="27.0008" cy="90.5984" r="14.2" fill="#1F2937"/>
<circle cx="106.3" cy="90.4992" r="21.3" fill="#FFD93D"/>
<circle cx="106.399" cy="90.5984" r="14.2" fill="#1F2937"/>
<path d="M68.5992 121.199L95.7924 136.199H41.406L68.5992 121.199Z" fill="#FF5CA8"/>
<path d="M68.5992 153.199L95.7924 138.199H41.406L68.5992 153.199Z" fill="#FF5CA8"/>
<path d="M119.4 49.002H69.3994C70.6011 50.6576 71.7325 52.3838 72.792 54.1816C78.5338 63.9254 80.2002 74.3695 80.2002 86.2012V115.701H55.5L54.7832 86.5449C54.7831 79.5853 53.1301 73.3217 49.8242 67.7539C46.5183 62.012 41.9948 57.4876 36.2529 54.1816C30.6851 50.8757 24.334 49.2227 17.2002 49.2227V49.002H0V22.6016H119.4V49.002Z" fill="#38BDF8"/>
<path d="M119.486 0C131.02 0 140.371 9.34974 140.371 20.8838C140.371 25.7702 138.692 30.2646 135.881 33.8223C132.148 39.1799 128.685 45.7775 128.224 49.8662H110.322C110.322 44.5545 106.314 38.4675 103.333 34.1221C100.377 30.5188 98.6016 25.9084 98.6016 20.8838C98.6018 9.3498 107.952 0.000105974 119.486 0Z" fill="#FFD93D"/>
<rect x="110.535" y="50.7188" width="17.4748" height="2.98351" fill="#D9D9D9"/>
<rect x="110.535" y="54.5547" width="17.4748" height="2.98351" fill="#D9D9D9"/>
<rect x="110.535" y="58.3906" width="17.4748" height="2.98351" fill="#D9D9D9"/>
<rect x="114.797" y="62.2266" width="8.95053" height="2.98351" fill="#D9D9D9"/>
</svg>
