<svg viewBox="0 0 126 151" fill="none" xmlns="http://www.w3.org/2000/svg">
<path d="M22.5977 1.87891C33.8331 1.87891 44.1463 4.64585 53.5372 10.1797C63.0957 15.546 70.6419 22.9245 76.1758 32.3153C81.7097 41.7062 84.4767 52.1032 84.4767 63.5064V108.784C84.4767 110.964 85.1474 112.808 86.489 114.318C87.9982 115.659 89.759 116.33 91.7713 116.33C94.2868 116.33 96.2152 115.659 97.5568 114.318C99.066 112.976 99.8207 111.131 99.8207 108.784V64.0095H125.478V108.784C125.478 114.821 123.969 120.438 120.95 125.637C117.932 130.668 113.823 134.692 108.625 137.711C103.594 140.562 97.976 141.987 91.7713 141.987C85.7344 141.987 80.2005 140.562 75.1697 137.711C70.1388 134.692 66.1142 130.668 63.0957 125.637C60.2449 120.438 58.8195 114.821 58.8195 108.784V63.5064C58.8195 56.7986 57.2264 50.7617 54.0402 45.3955C50.8541 39.8616 46.494 35.5015 40.9601 32.3153C35.5939 29.1292 29.4731 27.5361 22.5977 27.5361V1.87891Z" fill="#6EE7B7"/>
<path d="M18.7891 0C30.9588 0 42.1301 2.99717 52.3018 8.99121C62.655 14.8036 70.8282 22.7961 76.8223 32.9678C82.8163 43.1395 84.5557 54.0422 84.5557 66.3936V97.1885H58.7715L58.0234 66.752C58.0234 59.4867 56.2976 52.948 52.8467 47.1357C49.3956 41.1417 44.6727 36.4189 38.6787 32.9678C32.8663 29.5167 26.2362 27.791 18.7891 27.791V0Z" fill="#38BDF8"/>
<circle cx="25.3682" cy="75.0557" r="22.2354" fill="#FFD93D"/>
<circle cx="25.472" cy="75.1595" r="14.8236" fill="#1F2937"/>
<ellipse cx="29.1261" cy="69.1055" rx="5.95031" ry="6.0547" fill="#F9FAFB"/>
<circle cx="73.3877" cy="75.0557" r="22.2354" fill="#FFD93D"/>
<circle cx="73.4915" cy="75.1595" r="14.8236" fill="#1F2937"/>
<ellipse cx="77.1456" cy="69.1055" rx="5.95031" ry="6.0547" fill="#F9FAFB"/>
<path d="M34.0264 101.887C40.7174 101.887 46.1416 107.311 46.1416 114.002C46.1415 117.255 44.8568 120.206 42.7705 122.382C41.179 124.589 37.0351 130.427 32.9453 136.202L22.9404 150.348L13.1074 136.202C8.15091 129.081 3.1142 121.863 2.79199 121.477C2.14768 120.703 1.70156 120.146 1.24512 119.157C0.99813 118.622 0.873697 118.31 0.729492 117.739C0.720183 117.702 0.712863 117.664 0.704102 117.624C0.249136 116.373 3.96171e-05 115.023 0 113.615C0 107.138 5.25115 101.887 11.7285 101.887C16.7891 101.887 21.1017 105.091 22.7461 109.582C24.5124 105.077 28.8953 101.887 34.0264 101.887Z" fill="#FF4D4D"/>
<path d="M106.479 10.6484C111.899 10.6486 116.292 15.0416 116.292 20.4609C116.292 23.0936 115.253 25.4818 113.565 27.2441C110.696 31.222 97.5 49.9014 97.5 49.9014L97.499 49.9004V49.9014C97.4541 49.8367 81.7009 27.143 81.1797 26.5176C80.6579 25.8914 80.2974 25.4392 79.9277 24.6387C79.7277 24.2055 79.6266 23.9529 79.5098 23.4902C79.5036 23.4658 79.5 23.44 79.4941 23.4141C79.1213 22.3956 78.918 21.2951 78.918 20.1475C78.9182 14.9012 83.1716 10.6484 88.418 10.6484C92.5174 10.6486 96.0096 13.2454 97.3408 16.8838C98.7707 13.2337 102.323 10.6484 106.479 10.6484Z" fill="#FF4D4D"/>
</svg>
