<svg viewBox="0 0 169 159" fill="none" xmlns="http://www.w3.org/2000/svg">
<path d="M74.3977 99.7145C71.6508 98.7025 69.1207 98.1964 66.8075 98.1964C63.3377 98.1964 60.157 99.0639 57.2655 100.799C54.374 102.389 52.0608 104.702 50.3259 107.738C48.7356 110.63 47.9404 113.811 47.9404 117.28C47.9404 120.606 48.7356 123.714 50.3259 126.606C52.0608 129.497 54.374 131.81 57.2655 133.545C60.157 135.136 63.3377 135.931 66.8075 135.931C70.2773 135.931 73.3857 135.063 76.1326 133.328C79.0242 131.593 81.3374 129.353 83.0723 126.606C84.9518 123.714 85.8915 120.606 85.8915 117.28H108.012C108.012 124.509 106.132 131.232 102.373 137.449C98.7587 143.665 93.7709 148.653 87.4095 152.412C81.1928 156.171 74.3254 158.051 66.8075 158.051C59.2896 158.051 52.4222 156.244 46.2055 152.629C39.9887 149.015 35.0009 144.099 31.2419 137.882C27.6275 131.521 25.8203 124.582 25.8203 117.064C25.8203 109.69 27.6275 102.895 31.2419 96.6784C35.0009 90.3171 39.9887 85.3292 46.2055 81.7148C52.4222 77.9559 59.2896 76.0764 66.8075 76.0764C71.8677 76.0764 77.0001 77.0884 82.2048 79.1125L74.3977 99.7145ZM54.6632 37.2578C64.3497 37.2578 73.2411 39.6433 81.3374 44.4143C89.5782 49.0407 96.0841 55.4021 100.855 63.4983C105.626 71.5945 108.012 80.5582 108.012 90.3894V129.425C108.012 131.304 108.59 132.895 109.746 134.196C111.048 135.352 112.566 135.931 114.301 135.931C116.469 135.931 118.132 135.352 119.288 134.196C120.59 133.039 121.24 131.449 121.24 129.425V90.8231H143.36V129.425C143.36 134.63 142.059 139.473 139.457 143.955C136.854 148.292 133.312 151.762 128.83 154.364C124.493 156.822 119.65 158.051 114.301 158.051C109.096 158.051 104.325 156.822 99.9876 154.364C95.6504 151.762 92.1805 148.292 89.5782 143.955C87.1204 139.473 85.8915 134.63 85.8915 129.425V90.3894C85.8915 84.6063 84.518 79.4016 81.7711 74.7752C79.0242 70.0042 75.2652 66.2452 70.4942 63.4983C65.8678 60.7514 60.5908 59.3779 54.6632 59.3779V37.2578Z" fill="#FF5CA8"/>
<circle cx="74.8688" cy="85.4078" r="16.65" fill="#FFD93D"/>
<ellipse cx="70.6573" cy="76.7758" rx="7.47" ry="5.22" transform="rotate(-26.6006 70.6573 76.7758)" fill="#1F2937"/>
<path d="M98.2686 12.7812C107.123 12.7812 114.874 17.4997 119.147 24.5586C121.645 22.8084 124.687 21.7812 127.969 21.7812C136.468 21.7815 143.358 28.6714 143.358 37.1709C143.358 45.6704 136.468 52.5603 127.969 52.5605C124.687 52.5605 121.646 51.5332 119.148 49.7832C114.875 56.8427 107.123 61.5615 98.2686 61.5615C91.6973 61.5614 85.7342 58.9612 81.3486 54.7354C76.963 58.9611 70.9999 61.5615 64.4287 61.5615C55.7522 61.5614 48.1349 57.0297 43.8115 50.2051C41.4409 51.6966 38.6356 52.5615 35.6279 52.5615C27.1284 52.5613 20.2383 45.6704 20.2383 37.1709C20.2385 28.6715 27.1285 21.7814 35.6279 21.7812C38.6354 21.7812 41.4409 22.6453 43.8115 24.1367C48.135 17.3124 55.7524 12.7814 64.4287 12.7812C70.9995 12.7812 76.9631 15.3802 81.3486 19.6055C85.7342 15.3801 91.6978 12.7813 98.2686 12.7812Z" fill="#38BDF8"/>
<ellipse cx="70.6788" cy="74.261" rx="2.16" ry="3.15" transform="rotate(57.3239 70.6788 74.261)" fill="#F9FAFB"/>
<path fill-rule="evenodd" clip-rule="evenodd" d="M123.398 61.375C126.595 64.9254 128.635 68.7165 129.894 72.2744C133.592 67.7582 138.453 64.9672 141.472 63.8506C142.814 68.6782 142.902 73.1755 142.361 77.0469C147.313 74.7808 152.452 74.277 155.484 74.4707C153.677 86.6886 145.722 93.9796 141.971 96.0977L125.584 102.001C125.578 101.984 125.573 101.964 125.568 101.943L125.563 101.962C124.83 101.696 122.238 98.3869 117.728 87.2822C113.217 76.1775 119.629 65.3836 123.398 61.375Z" fill="#6EE7B7"/>
</svg>
