<svg viewBox="0 0 159 146" fill="none" xmlns="http://www.w3.org/2000/svg">
<rect x="123" y="17.1992" width="5.4" height="64.2" fill="#1F2937"/>
<path d="M71.1741 80.1932C68.122 79.0687 65.3108 78.5065 62.7405 78.5065C58.8852 78.5065 55.3511 79.4703 52.1383 81.398C48.9255 83.165 46.3553 85.7353 44.4276 89.1087C42.6606 92.3215 41.7771 95.8555 41.7771 99.7109C41.7771 103.406 42.6606 106.859 44.4276 110.072C46.3553 113.285 48.9255 115.855 52.1383 117.783C55.3511 119.55 58.8852 120.433 62.7405 120.433C66.5959 120.433 70.0496 119.47 73.1018 117.542C76.3146 115.614 78.8848 113.124 80.8125 110.072C82.9008 106.859 83.945 103.406 83.945 99.7109H108.523C108.523 107.743 106.435 115.213 102.258 122.12C98.2419 129.028 92.6998 134.57 85.6317 138.746C78.7242 142.923 71.0938 145.011 62.7405 145.011C54.3873 145.011 46.7569 143.003 39.8494 138.987C32.9419 134.971 27.3998 129.51 23.2232 122.602C19.2072 115.534 17.1992 107.823 17.1992 99.4699C17.1992 91.2773 19.2072 83.7272 23.2232 76.8197C27.3998 69.7516 32.9419 64.2095 39.8494 60.1936C46.7569 56.0169 54.3873 53.9286 62.7405 53.9286C68.3629 53.9286 74.0656 55.0531 79.8487 57.302L71.1741 80.1932ZM49.2468 10.7969C60.0097 10.7969 69.889 13.4474 78.8848 18.7485C88.0413 23.889 95.2701 30.9571 100.571 39.953C105.872 48.9488 108.523 58.9084 108.523 69.8319V113.205C108.523 115.293 109.165 117.06 110.451 118.506C111.896 119.791 113.583 120.433 115.511 120.433C117.92 120.433 119.768 119.791 121.053 118.506C122.498 117.221 123.221 115.454 123.221 113.205V70.3139H147.799V113.205C147.799 118.988 146.353 124.369 143.462 129.349C140.57 134.168 136.635 138.023 131.655 140.915C126.836 143.646 121.454 145.011 115.511 145.011C109.728 145.011 104.427 143.646 99.6073 140.915C94.7881 138.023 90.9328 134.168 88.0413 129.349C85.3104 124.369 83.945 118.988 83.945 113.205V69.8319C83.945 63.4063 82.4189 57.6233 79.3667 52.4829C76.3146 47.1817 72.138 43.0051 66.8369 39.953C61.6964 36.9008 55.833 35.3747 49.2468 35.3747V10.7969Z" fill="#6EE7B7"/>
<path d="M45.6016 8.99609C57.2593 8.99609 67.9603 11.8676 77.7041 17.6094C87.6219 23.1773 95.4524 30.8333 101.194 40.5771C106.936 50.3209 108.602 60.765 108.602 72.5967V102.097H83.9023L83.1855 72.9404C83.1855 65.9806 81.5325 59.7163 78.2266 54.1484C74.9206 48.4066 70.3962 43.8831 64.6543 40.5771C59.0864 37.2713 52.7354 35.6182 45.6016 35.6182V8.99609Z" fill="#38BDF8"/>
<circle cx="21.3" cy="64.4992" r="21.3" fill="#FFD93D"/>
<circle cx="18.6008" cy="70.8" r="12.8" fill="#1F2937"/>
<circle cx="66.9016" cy="76.8977" r="21.3" fill="#FFD93D"/>
<circle cx="64.4016" cy="83.6008" r="12.8" fill="#1F2937"/>
<path d="M159 24.1L122.85 44.9712L122.85 3.22879L159 24.1Z" fill="#FF4D4D"/>
</svg>
