<svg viewBox="0 0 157 166" fill="none" xmlns="http://www.w3.org/2000/svg">
<path d="M147.946 45.873H97.9463C99.1479 47.5287 100.279 49.2549 101.339 51.0527C107.081 60.7965 108.747 71.2406 108.747 83.0723V165.373H84.0469L83.3301 83.416C83.33 76.4564 81.6769 70.1927 78.3711 64.625C75.0652 58.8831 70.5407 54.3587 64.7988 51.0527C59.2312 47.747 52.8806 46.0938 45.7471 46.0938V45.873H28.5469V19.4727H147.946V45.873Z" fill="#FFD93D"/>
<circle cx="66.6438" cy="83.5695" r="21.3" fill="#FF4D4D"/>
<circle cx="66.6422" cy="90.3688" r="9.9" fill="#1F2937"/>
<circle cx="118.245" cy="83.5695" r="21.3" fill="#FF4D4D"/>
<circle cx="118.244" cy="90.3688" r="9.9" fill="#1F2937"/>
<path d="M30.4417 21.9909L22.1872 0.654683L42.382 19.8419L46.4009 2.83513L51.1073 19.7291L68.3614 4.29669L57.9929 31.6083L73.2836 37.8934L56.6389 42.5966L73.7507 74.0411L45.5076 49.4725L31.1214 74.592L30.1029 53.6609L1.51785 60.5131L25.4932 44.2457L7.02932 43.2377L22.6543 36.8023L0.286723 23.1286L25.2613 26.2966L18.1618 17.1629L30.4417 21.9909Z" fill="#FF7A00"/>
<path d="M129.796 121.032L124.631 107.68L137.268 119.687L139.783 109.044L142.729 119.617L153.526 109.959L147.037 127.05L156.606 130.984L146.19 133.927L156.899 153.604L139.224 138.23L130.222 153.949L129.584 140.851L111.696 145.139L126.699 134.959L115.145 134.328L124.923 130.301L110.926 121.744L126.554 123.726L122.112 118.011L129.796 121.032Z" fill="#FF7A00"/>
</svg>
