<svg width="206" height="57" viewBox="0 0 206 57" fill="none" xmlns="http://www.w3.org/2000/svg">
<path d="M12.32 5.68V42.56C12.32 44.0533 12.8267 45.3067 13.84 46.32C14.9067 47.3333 16.1867 47.84 17.68 47.84H18.48V56H17.68C15.2267 56 12.96 55.4133 10.88 54.24C8.85333 53.0667 7.22667 51.44 6 49.36C4.82667 47.28 4.24 45.0133 4.24 42.56V5.68H12.32ZM0 19.68H18.48V27.76H0V19.68Z" fill="#FF5CA8"/>
<path d="M30.8162 19.68V56H22.6562V19.68H30.8162ZM30.8162 0V11.6H22.6562V0H30.8162Z" fill="#6EE7B7"/>
<path d="M43.0819 0V56H34.9219V0H43.0819ZM54.5219 56L37.4819 26.88C40.2019 28.4267 42.8685 28.9333 45.4819 28.4C48.1485 27.8133 50.3352 26.48 52.0419 24.4C53.7485 22.2667 54.6019 19.84 54.6019 17.12H62.7619C62.7619 20.96 61.7485 24.48 59.7219 27.68C57.7485 30.88 55.1352 33.3067 51.8819 34.96L63.9619 56H54.5219Z" fill="#FFD93D"/>
<path d="M75.3475 19.68V56H67.1875V19.68H75.3475ZM75.3475 0V11.6H67.1875V0H75.3475Z" fill="#FF7A00"/>
<path d="M96.0675 40.32H78.7875V32.48H96.0675V40.32Z" fill="#FF4D4D"/>
<path d="M109.742 5.68V42.56C109.742 44.0533 110.249 45.3067 111.262 46.32C112.329 47.3333 113.609 47.84 115.102 47.84H115.902V56H115.102C112.649 56 110.382 55.4133 108.302 54.24C106.275 53.0667 104.649 51.44 103.422 49.36C102.249 47.28 101.662 45.0133 101.662 42.56V5.68H109.742ZM97.4219 19.68H115.902V27.76H97.4219V19.68Z" fill="#38BDF8"/>
<path d="M135.732 35.04C134.719 34.6667 133.786 34.48 132.932 34.48C131.652 34.48 130.479 34.8 129.413 35.44C128.346 36.0267 127.493 36.88 126.853 38C126.266 39.0667 125.973 40.24 125.973 41.52C125.973 42.7467 126.266 43.8933 126.853 44.96C127.493 46.0267 128.346 46.88 129.413 47.52C130.479 48.1067 131.652 48.4 132.932 48.4C134.212 48.4 135.359 48.08 136.372 47.44C137.439 46.8 138.292 45.9733 138.932 44.96C139.626 43.8933 139.973 42.7467 139.973 41.52H148.133C148.133 44.1867 147.439 46.6667 146.053 48.96C144.719 51.2533 142.879 53.0933 140.533 54.48C138.239 55.8667 135.706 56.56 132.932 56.56C130.159 56.56 127.626 55.8933 125.332 54.56C123.039 53.2267 121.199 51.4133 119.812 49.12C118.479 46.7733 117.812 44.2133 117.812 41.44C117.812 38.72 118.479 36.2133 119.812 33.92C121.199 31.5733 123.039 29.7333 125.332 28.4C127.626 27.0133 130.159 26.32 132.932 26.32C134.799 26.32 136.693 26.6933 138.613 27.44L135.732 35.04ZM128.452 12C132.026 12 135.306 12.88 138.292 14.64C141.332 16.3467 143.733 18.6933 145.493 21.68C147.253 24.6667 148.133 27.9733 148.133 31.6V46C148.133 46.6933 148.346 47.28 148.773 47.76C149.253 48.1867 149.812 48.4 150.452 48.4C151.253 48.4 151.866 48.1867 152.292 47.76C152.772 47.3333 153.012 46.7467 153.012 46V31.76H161.173V46C161.173 47.92 160.693 49.7067 159.732 51.36C158.772 52.96 157.466 54.24 155.812 55.2C154.212 56.1067 152.426 56.56 150.452 56.56C148.533 56.56 146.773 56.1067 145.173 55.2C143.572 54.24 142.293 52.96 141.333 51.36C140.426 49.7067 139.973 47.92 139.973 46V31.6C139.973 29.4667 139.466 27.5467 138.452 25.84C137.439 24.08 136.052 22.6933 134.292 21.68C132.586 20.6667 130.639 20.16 128.452 20.16V12Z" fill="#38BDF8"/>
<path d="M173.473 0V56H165.312V0H173.473ZM184.913 56L167.872 26.88C170.592 28.4267 173.259 28.9333 175.872 28.4C178.539 27.8133 180.726 26.48 182.432 24.4C184.139 22.2667 184.993 19.84 184.993 17.12H193.152C193.152 20.96 192.139 24.48 190.113 27.68C188.139 30.88 185.526 33.3067 182.273 34.96L194.353 56H184.913Z" fill="#38BDF8"/>
<path d="M204.561 0V42.96H198.161V0H204.561ZM201.361 56.72C200.081 56.72 198.961 56.2667 198.001 55.36C197.094 54.4 196.641 53.28 196.641 52C196.641 50.6667 197.094 49.5467 198.001 48.64C198.961 47.7333 200.081 47.28 201.361 47.28C202.641 47.28 203.734 47.7333 204.641 48.64C205.547 49.5467 206.001 50.6667 206.001 52C206.001 53.28 205.547 54.4 204.641 55.36C203.734 56.2667 202.641 56.72 201.361 56.72Z" fill="#38BDF8"/>
</svg>
