<svg width="132" height="69" viewBox="0 0 132 69" fill="none" xmlns="http://www.w3.org/2000/svg">
<ellipse cx="34.4915" cy="56.44" rx="34.4915" ry="9.40676" fill="#6EE7B7"/>
<ellipse cx="97.2024" cy="56.44" rx="34.4915" ry="9.40676" fill="#6EE7B7"/>
<ellipse cx="42.3532" cy="39.6592" rx="34.4915" ry="9.40676" transform="rotate(38.0936 42.3532 39.6592)" fill="#6EE7B7"/>
<path d="M62.7065 61.9278C57.5113 61.9278 53.2998 53.5406 53.2998 34.4915C53.2998 15.4424 57.5113 -6.38273e-07 62.7065 -4.11183e-07C67.9017 -1.84093e-07 72.1133 15.4424 72.1133 34.4915C72.1133 53.5406 67.9017 61.9278 62.7065 61.9278Z" fill="#6EE7B7"/>
<path d="M66.6348 56.4397C62.9612 52.7661 61.0918 48.8311 74.5616 35.3614C88.0313 21.8916 101.929 13.9502 105.602 17.6238C109.276 21.2974 101.335 35.1948 87.8648 48.6645C74.395 62.1343 70.3084 60.1132 66.6348 56.4397Z" fill="#6EE7B7"/>
<rect x="36.0586" y="56.4434" width="59.5762" height="9.40676" fill="#6EE7B7"/>
</svg>
