<svg width="379" height="413" viewBox="0 0 379 413" fill="none" xmlns="http://www.w3.org/2000/svg">
<circle cx="183.314" cy="204.357" r="117.165" fill="#FF4D4D"/>
<rect x="299.084" y="117.497" width="59.8172" height="35.8903" rx="17.9451" transform="rotate(-35.2947 299.084 117.497)" fill="#FF7900"/>
<rect x="55.8203" y="130.092" width="59.8172" height="35.8903" rx="17.9451" transform="rotate(-149.059 55.8203 130.092)" fill="#FF7900"/>
<path d="M191.833 61.8657C182.04 60.3407 175.338 51.1659 176.863 41.3731L180.544 17.7311C182.069 7.93834 191.244 1.23593 201.037 2.7609C210.83 4.28588 217.532 13.4608 216.007 23.2536L212.326 46.8955C210.801 56.6883 201.626 63.3907 191.833 61.8657Z" fill="#FF7900"/>
<rect x="170.291" y="407.398" width="59.8172" height="35.8903" rx="17.9451" transform="rotate(-81.1487 170.291 407.398)" fill="#FF7900"/>
<rect y="293.209" width="59.8172" height="35.8903" rx="17.9451" transform="rotate(-34.4102 0 293.209)" fill="#FF7900"/>
<rect x="326.635" y="256.57" width="59.8172" height="35.8903" rx="17.9451" transform="rotate(30.3194 326.635 256.57)" fill="#FF7900"/>
</svg>
