<svg width="293" height="497" viewBox="0 0 293 497" fill="none" xmlns="http://www.w3.org/2000/svg">
<path d="M149.497 257.291C159.466 303.151 161.46 412.816 89.6797 484.596" stroke="#6EE7B7" stroke-width="23.9269" stroke-linecap="round"/>
<path fill-rule="evenodd" clip-rule="evenodd" d="M100.225 48.3667C113.062 18.183 132.259 -0.872807 152.905 0.0307834C172.518 0.889443 189.253 19.5784 199.581 48.1861C221.774 24.6266 246.046 13.5287 264.976 21.3443C297.176 34.6384 301.725 97.6215 275.136 162.021C252.233 217.495 213.696 255.922 182.873 257.011C172.551 259.051 160.492 260.104 147.169 260.104C120.394 260.104 98.7238 257.85 86.0035 251.39C57.1944 242.634 26.2455 202.586 10.1519 149.243C-9.9719 82.5401 0.75101 20.3099 34.1021 10.2476C54.9412 3.96053 79.6838 19.5288 100.225 48.3667Z" fill="#FF5CA8"/>
<path d="M149.496 358.989C165.447 331.075 208.117 280.031 251.185 299.172C247.197 319.111 221.277 382.907 149.496 358.989Z" fill="#6EE7B7"/>
</svg>
